<svg width="1023" height="1024" fill="none" xmlns="http://www.w3.org/2000/svg"><path d="m478 .3-15.5 1.4A512.7 512.7 0 0 0 4.6 437.2 391.6 391.6 0 0 0 0 511.7c0 38 .5 46.4 4.6 74.5a513.6 513.6 0 0 0 349.9 413.3c33.2 10.7 68.2 18 108 22.4 15.5 1.7 82.5 1.7 98 0a516.4 516.4 0 0 0 184.3-54c8.8-4.4 10.5-5.6 9.3-6.6-.8-.6-38.3-51-83.3-111.7L589 739 486.5 587.4a14572.2 14572.2 0 0 0-103.2-151.6c-.4-.1-.8 67.3-1 149.6-.3 144-.4 149.9-2.2 153.3a18.2 18.2 0 0 1-8.8 9c-3.2 1.7-6 2-21.1 2h-17.3l-4.6-3c-3-1.8-5.2-4.3-6.7-7.2l-2.1-4.5.2-200.5.3-200.6 3.1-4c1.6-2 5-4.7 7.4-6 4.1-2 5.7-2.2 23-2.2 20.4 0 23.8.8 29.1 6.6 1.5 1.6 57 85.2 123.4 185.9l201.8 305.7 81 122.7 4.1-2.7A525 525 0 0 0 898 847.7a509.2 509.2 0 0 0 120.4-261.5c4.1-28.1 4.6-36.4 4.6-74.5s-.5-46.4-4.6-74.5A513.6 513.6 0 0 0 562 1.6c-9.6-1-75.7-2.1-84-1.3Zm209.4 309.4c4.8 2.4 8.7 7 10.1 11.8.8 2.6 1 58.2.8 183.5l-.3 179.8-31.7-48.6-31.8-48.6V456.9c0-84.5.4-132 1-134.3 1.6-5.6 5.1-10 9.9-12.6 4.1-2.1 5.6-2.3 21.3-2.3 14.8 0 17.4.2 20.7 2Z" fill="#fff"/></svg>